<svg width="18" height="21" viewBox="0 0 18 21" fill="none" xmlns="http://www.w3.org/2000/svg">
<path d="M11.1206 12.6211C11.1206 12.6211 11.2671 12.4746 11.56 12.1816C11.8529 11.8887 11.9993 11.3281 11.9993 10.5C11.9993 9.67188 11.7064 8.96484 11.1206 8.37891C10.5348 7.79297 9.82796 7.5 9.00001 7.5C8.17207 7.5 7.4652 7.79297 6.87939 8.37891C6.29358 8.96484 6.00068 9.67188 6.00068 10.5C6.00068 11.3281 6.29358 12.0352 6.87939 12.6211C7.4652 13.207 8.17207 13.5 9.00001 13.5C9.82796 13.5 10.5348 13.207 11.1206 12.6211ZM12.2688 7.23047C12.2688 7.23047 12.4934 7.45508 12.9425 7.9043C13.3916 8.35352 13.6162 9.21875 13.6162 10.5C13.6162 11.7812 13.1671 12.8711 12.2688 13.7695C11.3706 14.668 10.281 15.1172 9.00001 15.1172C7.71905 15.1172 6.62945 14.668 5.73121 13.7695C4.83297 12.8711 4.38385 11.7812 4.38385 10.5C4.38385 9.21875 4.83297 8.12891 5.73121 7.23047C6.62945 6.33203 7.71905 5.88281 9.00001 5.88281C10.281 5.88281 11.3706 6.33203 12.2688 7.23047ZM14.5652 4.93359C14.5652 4.93359 14.6179 4.98633 14.7234 5.0918C14.8288 5.19727 14.8815 5.39844 14.8815 5.69531C14.8815 5.99219 14.7761 6.24609 14.5652 6.45703C14.3543 6.66797 14.1004 6.77344 13.8036 6.77344C13.5068 6.77344 13.253 6.66797 13.0421 6.45703C12.8312 6.24609 12.7257 5.99219 12.7257 5.69531C12.7257 5.39844 12.8312 5.14453 13.0421 4.93359C13.253 4.72266 13.5068 4.61719 13.8036 4.61719C14.1004 4.61719 14.3543 4.72266 14.5652 4.93359ZM9.8963 3.11133C9.8963 3.11133 9.76059 3.1123 9.48916 3.11426C9.21774 3.11621 9.05469 3.11719 9.00001 3.11719C8.94534 3.11719 8.64658 3.11523 8.10373 3.11133C7.56088 3.10742 7.14886 3.10742 6.86768 3.11133C6.58649 3.11523 6.20962 3.12695 5.73707 3.14648C5.26452 3.16602 4.86226 3.20508 4.5303 3.26367C4.19835 3.32227 3.91911 3.39453 3.6926 3.48047C3.30206 3.63672 2.95839 3.86328 2.66158 4.16016C2.36477 4.45703 2.13826 4.80078 1.98204 5.19141C1.89612 5.41797 1.82387 5.69727 1.76529 6.0293C1.70671 6.36133 1.66766 6.76367 1.64813 7.23633C1.62861 7.70898 1.61689 8.08594 1.61298 8.36719C1.60908 8.64844 1.60908 9.06055 1.61298 9.60352C1.61689 10.1465 1.61884 10.4453 1.61884 10.5C1.61884 10.5547 1.61689 10.8535 1.61298 11.3965C1.60908 11.9395 1.60908 12.3516 1.61298 12.6328C1.61689 12.9141 1.62861 13.291 1.64813 13.7637C1.66766 14.2363 1.70671 14.6387 1.76529 14.9707C1.82387 15.3027 1.89612 15.582 1.98204 15.8086C2.13826 16.1992 2.36477 16.543 2.66158 16.8398C2.95839 17.1367 3.30206 17.3633 3.6926 17.5195C3.91911 17.6055 4.19835 17.6777 4.5303 17.7363C4.86226 17.7949 5.26452 17.834 5.73707 17.8535C6.20962 17.873 6.58649 17.8848 6.86768 17.8887C7.14886 17.8926 7.56088 17.8926 8.10373 17.8887C8.64658 17.8848 8.94534 17.8828 9.00001 17.8828C9.05469 17.8828 9.35345 17.8848 9.8963 17.8887C10.4391 17.8926 10.8512 17.8926 11.1324 17.8887C11.4135 17.8848 11.7904 17.873 12.263 17.8535C12.7355 17.834 13.1378 17.7949 13.4697 17.7363C13.8017 17.6777 14.0809 17.6055 14.3074 17.5195C14.698 17.3633 15.0416 17.1367 15.3384 16.8398C15.6353 16.543 15.8618 16.1992 16.018 15.8086C16.1039 15.582 16.1762 15.3027 16.2347 14.9707C16.2933 14.6387 16.3324 14.2363 16.3519 13.7637C16.3714 13.291 16.3831 12.9141 16.387 12.6328C16.3909 12.3516 16.3909 11.9395 16.387 11.3965C16.3831 10.8535 16.3812 10.5547 16.3812 10.5C16.3812 10.4453 16.3831 10.1465 16.387 9.60352C16.3909 9.06055 16.3909 8.64844 16.387 8.36719C16.3831 8.08594 16.3714 7.70898 16.3519 7.23633C16.3324 6.76367 16.2933 6.36133 16.2347 6.0293C16.1762 5.69727 16.1039 5.41797 16.018 5.19141C15.8618 4.80078 15.6353 4.45703 15.3384 4.16016C15.0416 3.86328 14.698 3.63672 14.3074 3.48047C14.0809 3.39453 13.8017 3.32227 13.4697 3.26367C13.1378 3.20508 12.7355 3.16602 12.263 3.14648C11.7904 3.12695 11.4135 3.11523 11.1324 3.11133C10.8512 3.10742 10.4391 3.10742 9.8963 3.11133ZM17.9394 6.78516C17.9785 7.47266 17.998 8.71094 17.998 10.5C17.998 12.2891 17.9785 13.5273 17.9394 14.2148C17.8613 15.8398 17.3771 17.0977 16.4866 17.9883C15.5962 18.8789 14.3387 19.3633 12.714 19.4414C12.0267 19.4805 10.7887 19.5 9.00001 19.5C7.21135 19.5 5.97334 19.4805 5.286 19.4414C3.66136 19.3633 2.40382 18.8789 1.5134 17.9883C0.62297 17.0977 0.138703 15.8398 0.0605949 14.2148C0.0215411 13.5273 0.00201416 12.2891 0.00201416 10.5C0.00201416 8.71094 0.0215411 7.47266 0.0605949 6.78516C0.138703 5.16016 0.62297 3.90234 1.5134 3.01172C2.40382 2.12109 3.66136 1.63672 5.286 1.55859C5.97334 1.51953 7.21135 1.5 9.00001 1.5C10.7887 1.5 12.0267 1.51953 12.714 1.55859C14.3387 1.63672 15.5962 2.12109 16.4866 3.01172C17.3771 3.90234 17.8613 5.16016 17.9394 6.78516Z" fill="white"/>
</svg>
